<svg width="192" height="192" viewBox="0 0 192 192" xmlns="http://www.w3.org/2000/svg">
    <path d="M 102.9 148.4 L 102.9 116.7 C 102.9 109.2 114.1 102.9 123.6 102.9 L 123.6 82.2 C 123.6 79.3 118.4 76.7 114 76.7 L 78 76.7 C 73.6 76.7 68.4 79.3 68.4 82.2 L 68.4 102.9 C 77.8 102.9 89.1 109.2 89.1 116.7 L 89.1 148.4 C 89.1 157.4 66 166.3 46.3 166.3 L 46.3 175.9 L 145.6 175.9 L 145.6 166.3 C 125.9 166.4 102.9 157.5 102.9 148.4 Z M 112.5 24.9 C 143.2 32.4 166.3 60.4 166.3 93.3 C 166.3 119.5 151.7 142.5 130.3 154.6 L 121.6 139 C 137.5 130 148.4 112.8 148.4 93.3 C 148.4 64.5 124.7 40.9 96 40.9 C 67.3 40.9 43.6 64.5 43.6 93.3 C 43.6 112.8 54.5 130 70.4 139 L 61.7 154.6 C 40.3 142.5 25.7 119.4 25.7 93.3 C 25.7 60.4 48.8 32.4 79.5 24.9 L 79.5 20.1 C 79.5 17.8 81.4 16 83.6 16 L 108.5 16 C 110.8 16 112.6 17.9 112.6 20.1 C 112.5 20.1 112.5 24.9 112.5 24.9 Z"
        fill="#000"/>
</svg>
