<svg width="192" height="192" viewBox="0 0 192 192" xmlns="http://www.w3.org/2000/svg">
    <path d="M102.9,148.2v-31.5c0-7.5,11.1-13.7,20.6-13.7V82.3c0-2.9-5.2-5.5-9.5-5.5H78.1c-4.4,0-9.5,2.6-9.5,5.5v20.6
	c9.3,0,20.6,6.3,20.6,13.7v31.5c0,8.9-23,17.8-42.6,17.8v9.5h98.7V166C125.7,166.1,102.9,157.2,102.9,148.2z M112.4,25.3
	c30.5,7.5,53.5,35.3,53.5,68c0,26.1-14.5,48.9-35.8,61l-8.7-15.5c15.8-8.9,26.6-26.1,26.6-45.4c0-28.6-23.6-52.1-52.1-52.1
	S43.9,64.7,43.9,93.4c0,19.4,10.8,36.5,26.6,45.4l-8.7,15.5c-21.3-12-35.8-35-35.8-61c0-32.7,23-60.6,53.5-68v-4.8
	c0-2.3,1.9-4.1,4.1-4.1h24.8c2.3,0,4.1,1.9,4.1,4.1C112.4,20.6,112.4,25.3,112.4,25.3z"
        fill="#000000"/>
</svg>
