<svg width="192" height="192" viewBox="0 0 192 192" xmlns="http://www.w3.org/2000/svg">
    <path d="M102.9,148.4v-31.7c0-7.5,11.2-13.8,20.7-13.8V82.2c0-2.9-5.2-5.5-9.6-5.5H78c-4.4,0-9.6,2.6-9.6,5.5v20.7
	c9.4,0,20.7,6.3,20.7,13.8v31.7c0,9-23.1,17.9-42.8,17.9v9.6h99.3v-9.6C125.9,166.4,102.9,157.5,102.9,148.4z M112.5,24.9
	c30.7,7.5,53.8,35.5,53.8,68.4c0,26.2-14.6,49.2-36,61.3l-8.7-15.6c15.9-9,26.8-26.2,26.8-45.7c0-28.8-23.7-52.4-52.4-52.4
	S43.6,64.5,43.6,93.3c0,19.5,10.9,36.7,26.8,45.7l-8.7,15.6c-21.4-12.1-36-35.2-36-61.3c0-32.9,23.1-60.9,53.8-68.4v-4.8
	c0-2.3,1.9-4.1,4.1-4.1h24.9c2.3,0,4.1,1.9,4.1,4.1C112.5,20.1,112.5,24.9,112.5,24.9z"
        fill="#000000"/>
</svg>
