<svg width="192" height="192" viewBox="0 0 192 192" xmlns="http://www.w3.org/2000/svg">
    <path d="M175.5,50c-2.1-1-4.2-3.1-6.8-5.2c-2.1-2.1-10.4-9.3-16.2-8.3c-7.3,1.6-14.1,16.7-19.3,19.3
	c-13,6.3-15.1,1.6-25.5-8.3c-4.7-4.7-10.9-9.3-27.1-10.4c-39,0-70.3-17.2-63.1-8.3l0,0C25.5,44.9,30.6,40.1,49.8,49
	c13.5,2.1-20.4,8.8-22.9,5.8c3.4,13.4,16.8,10.3,24.6,11.8c15.6,3.1-20.4,8.8,0,20.4c2.1,7.3-0.5,22.5,23.9,23.9
	c14.6,0.5,31.3-5.8,31.8,1.6c0.5,5.8-13,9.9-40.6,29.7c-12,9.9,8.8,10.4,8.3,14.6c7.8,12.5,12.5-2.6,17.2,5.2
	c2.6,4.2,7.8,9.9,12.5,9.9h7.8c0-10.9,3.1-22.5,9.3-28.1c18.3-20.4,37-18.3,36-59.9C158.3,68.2,168.7,50.5,175.5,50z M156.7,52.6
	c-1.6,0-3.1-1-3.1-3.1c0-1.6,1-3.1,3.1-3.1s3.1,1,3.1,3.1C159.3,51.5,158.3,52.6,156.7,52.6z"
        fill="#000000"/>
</svg>
