<svg width="192" height="192" viewBox="0 0 192 192" xmlns="http://www.w3.org/2000/svg">
    <path d="M176,49.7c-2.1-1-4.2-3.1-6.8-5.2c-2.1-2.1-10.5-9.4-16.3-8.4c-7.3,1.6-14.2,16.8-19.4,19.4
	c-13.1,6.3-15.2,1.6-25.7-8.4c-4.7-4.7-11-9.4-27.3-10.5c-39.3,0-70.8-17.3-63.5-8.4l0,0C25,44.5,30.2,39.7,49.5,48.7
	c13.6,2.1-20.5,8.9-23.1,5.8C29.8,68,43.3,64.9,51.2,66.4c15.7,3.1-20.5,8.9,0,20.5c2.1,7.3-0.5,22.6,24.1,24.1
	c14.7,0.5,31.5-5.8,32,1.6c0.5,5.8-13.1,10-40.9,29.9c-12.1,10,8.9,10.5,8.4,14.7c7.9,12.6,12.6-2.6,17.3,5.2
	c2.6,4.2,7.9,10,12.6,10h7.9c0-11,3.1-22.6,9.4-28.3c18.4-20.5,37.2-18.4,36.2-60.3C158.7,68,169.2,50.2,176,49.7z M157.1,52.3
	c-1.6,0-3.1-1-3.1-3.1c0-1.6,1-3.1,3.1-3.1c2.1,0,3.1,1,3.1,3.1C159.7,51.2,158.7,52.3,157.1,52.3z"
        fill="#000000"/>
</svg>
