<svg width="192" height="192" viewBox="0 0 192 192" xmlns="http://www.w3.org/2000/svg">
    <path d="M154.7,102.7c7.3-35.7-14.4-71.3-50.1-80.9c-36.9-9.9-75,12-84.9,48.9c-6.1,22.7-1.8,47.4,11.5,66.8
	c9.4,13.8,23,24.3,38.7,30c43.6,15.9,90.5-7.7,104.7-50.3c1-3.1,0.4-5.1-3.3-5.9l-13.3-3.6C154.8,106.9,154,105.8,154.7,102.7z
	 M84.2,142.3c-13.4-3.6-24.7-12.2-31.6-24.3S43.8,92,47.4,78.6C53.3,56.7,76,43.6,98,49.5c20.4,5.4,33.2,25.5,30.2,45.9
	c-0.6,3.8,0.2,5,3.7,5.9l11.7,3.1c3.5,1,4.3,2.2,3.1,5.8C137.2,135.1,110.4,149.4,84.2,142.3z"
        fill="#000000"/>
</svg>
