<svg width="192" height="192" viewBox="0 0 192 192" xmlns="http://www.w3.org/2000/svg">
    <path d="M147.8,118.9c-6.4-2.1-15-5.4-24.5-8.9c5.7-10,10.3-21.3,13.3-33.6H105V65.1h38.6v-6.3H105V39.9H89.3
	c-2.8,0-2.8,2.7-2.8,2.7v16.1h-39v6.3h39v11.3H54.3v6.3h62.5c-2.3,7.9-5.3,15.3-9,22C87.5,98.1,65.9,92.7,52.3,96
	c-8.7,2.2-14.3,5.9-17.6,10c-15.1,18.3-4.3,46.2,27.6,46.2c18.8,0,37-10.5,51.1-27.8c21,10.1,62.6,27.4,62.6,27.4V127
	C176,127,170.8,126.6,147.8,118.9z M59.4,141.4c-24.9,0-32.2-19.5-19.9-30.2c4.1-3.6,11.6-5.4,15.6-5.8c14.8-1.5,28.4,4.2,44.6,12
	C88.3,132.2,73.8,141.4,59.4,141.4z"
        fill="#000000"/>
</svg>
