<svg width="192" height="192" viewBox="0 0 192 192" xmlns="http://www.w3.org/2000/svg"><path d="M147.8 118.9c-6.4-2.1-15-5.4-24.5-8.9 5.7-10 10.3-21.3 13.3-33.6H105V65.1h38.6v-6.3H105V39.9H89.3c-2.8 0-2.8 2.7-2.8 2.7v16.1h-39V65h39v11.3H54.3v6.3h62.5c-2.3 7.9-5.3 15.3-9 22-20.3-6.5-41.9-11.9-55.5-8.6-8.7 2.2-14.3 5.9-17.6 10-15.1 18.3-4.3 46.2 27.6 46.2 18.8 0 37-10.5 51.1-27.8 21 10.1 62.6 27.4 62.6 27.4V127s-5.2-.4-28.2-8.1zm-88.4 22.5c-24.9 0-32.2-19.5-19.9-30.2 4.1-3.6 11.6-5.4 15.6-5.8 14.8-1.5 28.4 4.2 44.6 12-11.4 14.8-25.9 24-40.3 24z"/></svg>