<svg width="192" height="192" viewBox="0 0 192 192" xmlns="http://www.w3.org/2000/svg"><path d="M163.6 124.4c-.7 0-1.4 0-1.9-.1-1.2-.1-2.4-.1-3.6-.1-.8 0-.8 0-.9-.8l-1.1-12.8-1.1-10.7-.8-6.5-.7-5.7-1.3-8.9c-.4-3.2-.9-6.3-1.6-9.5-.1-.5-.1-.6.5-.6 2.2-.4 4.4-.6 6.7-.6h.8c.4.1.6.3.6.7l.3 4.8 2 26.4 1 12 .6 6.9.5 5.5zM77.2 68.1h1.3c.6 0 .8.2.8.9l.6 8.5 1.3 17.7.8 9.3.6 7.1 1.1 12.2c0 .6-.1.6-.6.6l-5-.2c-.4.1-.6-.1-.6-.5l-.2-2.5c-.2-2.1-.4-4.2-.6-6.4l-1.1-11.2-1.2-10.1-.9-7.1-1-6.4c-.4-2.9-.9-5.8-1.4-8.8l-.4-2c-.1-.4 0-.5.4-.6 1.9-.2 3.8-.6 6.1-.5zm70.9 28.5c1.8 0 2 .1 2.3 1.8.4 2.1.6 4.2.9 6.3l.8 6.8 1.5 14.5c.1.4 0 .5-.4.5l-5.5.6c-.6.1-.7 0-.8-.6l-3.2-16.2-2-10.8-.3-1.5c-.1-.3.1-.5.4-.6 2.2-.3 4.3-.7 6.3-.8zm-80.1 0c1.9-.1 2.1.1 2.4 1.9.5 2.9.9 5.7 1.1 8.6l.9 8.5.6 5.7.5 4.5c0 .6-.1.8-.6.9l-5.2.5c-.6.1-.7 0-.8-.6l-4.3-22.1-1.1-6.3c-.1-.4.1-.6.4-.6 2-.5 4.1-.9 6.1-1zm26.9 21.8v9c.1.4-.1.6-.6.6h-1.7c-1.2 0-2.4.1-3.6.1-.6.1-.7.1-.8-.7L87 114.8l-.6-6.3-.9-9.6c-.1-.8.1-.9.7-1 2-.2 3.9-.2 5.9-.1l1.5.2c.6.2.6.3.6.9l.2 3.9.1 4.2c.3 3.7.4 7.5.4 11.4zm80.1.4v8.7c0 .4-.1.6-.5.5h-2.6c-1 0-2 .1-2.9.1-.6.1-.6 0-.7-.6l-1.5-16.5-.8-8.2-.3-4.1c-.1-.6.1-.7.6-.7 2.4-.3 4.7-.4 7-.1.9.1 1.1.4 1.1 1.3l.2 9.4.4 10.2zm-28.9-37.3c.7 0 1.4.1 1.9.1.4.1.5.2.6.6l.9 9.8c.2.9.1 1-.8 1l-2.4.1c-.5.1-.7.1-.7-.6l-1-8-.3-2.3c-.1-.4.1-.6.5-.7h1.3zm-79.9 0c.6 0 1.1.1 1.6.1.3.1.4.2.5.6l.3 2.5.7 7.7c.1.6.1.6-.5.6l-2.8.1c-.6.1-.6 0-.7-.6l-.6-5.6-.6-4.7c-.1-.4.1-.6.4-.6.5 0 1.1-.1 1.7-.1zm28.1 7.1v4.8c.1.8-.1.8-.7.8-.9 0-1.8-.1-2.6-.1-.6-.1-.6-.1-.6-.6l-.2-6c0-1.4 0-2.7-.1-4-.1-.6 0-.7.6-.7 1 0 2 .1 3 .2.6 0 .6.1.6.7v4.9zm80.2.1v4.8c0 .6-.1.7-.7.7l-2.7-.1c-.4-.1-.6-.3-.6-.6l-.2-10.1c0-.6.1-.6.6-.6.9 0 1.8.1 2.6.1 1.1.1.9.3.9 1.1l.1 4.7zM64 92.4c.1.9 0 1-.9 1.1l-1.7.4c-.6.2-.6.1-.7-.4l-1.8-10c-.2-.6-.1-.8.6-.9l2.5-.4c.6-.1.7-.1.7.5l.6 3.6.7 5.6v.5zm75.1-9.7c1.1-.2 2.2-.4 3.4-.5.4-.1.5.1.6.5l.6 3.9c.3 1.9.5 3.9.6 5.7v.6c.1.3-.1.5-.4.6l-2.3.5c-.4.1-.5-.1-.6-.4l-1.9-10.5v-.4zM89 90.3c0 1.1-.1 2.2-.1 3.2 0 .4-.1.5-.5.6l-2.3.2c-.4.1-.5-.1-.5-.5-.1-1.1-.2-2.1-.3-3.1-.1-1.9-.3-3.9-.4-5.8l-.1-1.4c-.1-.3.1-.4.4-.4l2.9-.2c.5 0 .6.1.6.6l.3 6.8zm80-1c.1 1.4.1 2.8 0 4 .1.6-.1.8-.7.8l-2 .2c-.4.1-.6-.1-.6-.5-.1-1.8-.2-3.6-.4-5.3l-.3-4.9c-.1-.4.1-.5.4-.5l2.9-.2c.5 0 .6.1.6.6.1 1.9.2 3.9.1 5.8zm-107.7 24c1.1 1.4 1.4 2.9.9 4.4-.4 1.6-1.2 2.9-2.4 4-1.9 1.9-3.9 3.5-6.3 4.6-4 2.1-8.2 3.6-12.6 4.3-3.2.6-6.3 1.1-9.5 1.3-1 .1-2 .1-3 .1h-2.1c-.6 0-.7-.1-.8-.7l-.5-6.8-1.4-13.4-1.5-12.8-.9-6.8-.9-6.5c-.5-3.6-1.1-7.2-1.8-10.8-.5-2.9-1-5.8-1.6-8.7-.1-.4 0-.6.4-.7l9.8-4c.6-.3 1.2-.5 1.9-.6.4-.1.6.1.6.5 0 1.1 0 2.3-.1 3.5l-.1.9c-.1 4-.1 8.2 0 12.3.1 3.6.3 7.3.5 10.9.4 5.6.9 11.3 1.5 16.9 0 .6.1.6.7.5 1.2-.2 2.4-.3 3.6-.3 3.8 0 7.5.4 11.1 1.4 3.2.8 6.2 1.9 9.3 3.2 1.5.7 2.9 1.6 4 2.6.5 0 .8.3 1.2.7zm79.4-.6c1.5 1.2 2 2.9 1.6 4.7-.4 1.6-1.1 2.9-2.1 4-1.7 1.9-3.7 3.4-5.8 4.5-4.2 2.4-8.8 3.9-13.5 4.8-2.6.5-5.2.9-7.8 1.1-1.5.1-3.1.2-4.7.1h-1.9c-.4.1-.6-.1-.6-.6-.1-2-.3-3.9-.5-5.9l-1.1-12-1.2-10.5-1.5-11.8c-.2-2.1-.5-4.1-.9-6.2L99.5 77c-.6-3.8-1.3-7.5-2.1-11.3l-.1-.5c-.1-.4 0-.6.4-.7 3.5-1.4 6.8-3 10.3-4.3.9-.4 2.1-.8 2 .1-.3 2.6-.2 5.2-.3 7.8-.1 2.1-.1 4.2.1 6.3V76c0 2.6.1 5 .3 7.5.1 3.4.4 6.7.6 10l.6 7.1c.1 1.4.2 2.6.4 3.9 0 .8.1.7.8.6 1.3-.2 2.6-.3 3.9-.3 4.4.1 8.8.8 12.9 2 2.9.8 5.6 1.9 8.3 3.3 1.1.9 2.1 1.7 3.1 2.6zM38.8 125.1c1.1-.6 2.9-1.9 5.4-3.9 2.6-2.1 4-3.4 4.7-4-3.9-1.7-7.8-3.2-11.8-4.5l1.7 12.4zm90-7.6c.2-.2.1-.4-.1-.5l-1.7-.7c-3-1.3-5.9-2.4-9-3.4l-.4-.1c-.1-.1-.3 0-.5.1l1.7 12.2c.2 0 .4-.1.4-.1 2.8-2 5.5-4 8.3-6.2l1.3-1.3z"/></svg>