<svg width="192" height="192" viewBox="0 0 192 192" xmlns="http://www.w3.org/2000/svg">
    <path d="M163.6,124.4c-0.7,0-1.4,0-1.9-0.1c-1.2-0.1-2.4-0.1-3.6-0.1c-0.8,0-0.8,0-0.9-0.8l-1.1-12.8l-1.1-10.7l-0.8-6.5
	l-0.7-5.7l-1.3-8.9c-0.4-3.2-0.9-6.3-1.6-9.5c-0.1-0.5-0.1-0.6,0.5-0.6c2.2-0.4,4.4-0.6,6.7-0.6h0.8c0.4,0.1,0.6,0.3,0.6,0.7
	l0.3,4.8l2,26.4l1,12l0.6,6.9L163.6,124.4z M77.2,68.1h1.3c0.6,0,0.8,0.2,0.8,0.9l0.6,8.5l1.3,17.7l0.8,9.3l0.6,7.1l1.1,12.2
	c0,0.6-0.1,0.6-0.6,0.6l-5-0.2c-0.4,0.1-0.6-0.1-0.6-0.5l-0.2-2.5c-0.2-2.1-0.4-4.2-0.6-6.4l-1.1-11.2l-1.2-10.1l-0.9-7.1L72.5,80
	c-0.4-2.9-0.9-5.8-1.4-8.8l-0.4-2c-0.1-0.4,0-0.5,0.4-0.6C73,68.4,74.9,68,77.2,68.1z M148.1,96.6c1.8,0,2,0.1,2.3,1.8
	c0.4,2.1,0.6,4.2,0.9,6.3l0.8,6.8l1.5,14.5c0.1,0.4,0,0.5-0.4,0.5l-5.5,0.6c-0.6,0.1-0.7,0-0.8-0.6l-3.2-16.2l-2-10.8l-0.3-1.5
	c-0.1-0.3,0.1-0.5,0.4-0.6C144,97.1,146.1,96.7,148.1,96.6z M68,96.6c1.9-0.1,2.1,0.1,2.4,1.9c0.5,2.9,0.9,5.7,1.1,8.6l0.9,8.5
	l0.6,5.7l0.5,4.5c0,0.6-0.1,0.8-0.6,0.9l-5.2,0.5c-0.6,0.1-0.7,0-0.8-0.6l-4.3-22.1l-1.1-6.3c-0.1-0.4,0.1-0.6,0.4-0.6
	C63.9,97.1,66,96.7,68,96.6z M94.9,118.4v9c0.1,0.4-0.1,0.6-0.6,0.6h-1.7c-1.2,0-2.4,0.1-3.6,0.1c-0.6,0.1-0.7,0.1-0.8-0.7
	l-1.2-12.6l-0.6-6.3l-0.9-9.6c-0.1-0.8,0.1-0.9,0.7-1c2-0.2,3.9-0.2,5.9-0.1l1.5,0.2c0.6,0.2,0.6,0.3,0.6,0.9l0.2,3.9l0.1,4.2
	C94.8,110.7,94.9,114.5,94.9,118.4z M175,118.8v8.7c0,0.4-0.1,0.6-0.5,0.5h-2.6c-1,0-2,0.1-2.9,0.1c-0.6,0.1-0.6,0-0.7-0.6
	l-1.5-16.5l-0.8-8.2l-0.3-4.1c-0.1-0.6,0.1-0.7,0.6-0.7c2.4-0.3,4.7-0.4,7-0.1c0.9,0.1,1.1,0.4,1.1,1.3l0.2,9.4L175,118.8z
	 M146.1,81.5c0.7,0,1.4,0.1,1.9,0.1c0.4,0.1,0.5,0.2,0.6,0.6l0.9,9.8c0.2,0.9,0.1,1-0.8,1l-2.4,0.1c-0.5,0.1-0.7,0.1-0.7-0.6l-1-8
	l-0.3-2.3c-0.1-0.4,0.1-0.6,0.5-0.7H146.1z M66.2,81.5c0.6,0,1.1,0.1,1.6,0.1c0.3,0.1,0.4,0.2,0.5,0.6l0.3,2.5l0.7,7.7
	c0.1,0.6,0.1,0.6-0.5,0.6L66,93.1c-0.6,0.1-0.6,0-0.7-0.6l-0.6-5.6l-0.6-4.7c-0.1-0.4,0.1-0.6,0.4-0.6C65,81.6,65.6,81.5,66.2,81.5z
	 M94.3,88.6v4.8c0.1,0.8-0.1,0.8-0.7,0.8c-0.9,0-1.8-0.1-2.6-0.1c-0.6-0.1-0.6-0.1-0.6-0.6l-0.2-6c0-1.4,0-2.7-0.1-4
	c-0.1-0.6,0-0.7,0.6-0.7c1,0,2,0.1,3,0.2c0.6,0,0.6,0.1,0.6,0.7L94.3,88.6L94.3,88.6z M174.5,88.7v4.8c0,0.6-0.1,0.7-0.7,0.7
	l-2.7-0.1c-0.4-0.1-0.6-0.3-0.6-0.6l-0.2-10.1c0-0.6,0.1-0.6,0.6-0.6c0.9,0,1.8,0.1,2.6,0.1c1.1,0.1,0.9,0.3,0.9,1.1L174.5,88.7
	L174.5,88.7z M64,92.4c0.1,0.9,0,1-0.9,1.1l-1.7,0.4c-0.6,0.2-0.6,0.1-0.7-0.4l-1.8-10c-0.2-0.6-0.1-0.8,0.6-0.9l2.5-0.4
	c0.6-0.1,0.7-0.1,0.7,0.5c0.2,1.2,0.4,2.4,0.6,3.6l0.7,5.6V92.4L64,92.4z M139.1,82.7c1.1-0.2,2.2-0.4,3.4-0.5
	c0.4-0.1,0.5,0.1,0.6,0.5l0.6,3.9c0.3,1.9,0.5,3.9,0.6,5.7v0.6c0.1,0.3-0.1,0.5-0.4,0.6l-2.3,0.5c-0.4,0.1-0.5-0.1-0.6-0.4
	l-1.9-10.5V82.7L139.1,82.7z M89,90.3c0,1.1-0.1,2.2-0.1,3.2c0,0.4-0.1,0.5-0.5,0.6l-2.3,0.2c-0.4,0.1-0.5-0.1-0.5-0.5
	c-0.1-1.1-0.2-2.1-0.3-3.1c-0.1-1.9-0.3-3.9-0.4-5.8l-0.1-1.4c-0.1-0.3,0.1-0.4,0.4-0.4l2.9-0.2c0.5,0,0.6,0.1,0.6,0.6L89,90.3z
	 M169,89.3c0.1,1.4,0.1,2.8,0,4c0.1,0.6-0.1,0.8-0.7,0.8l-2,0.2c-0.4,0.1-0.6-0.1-0.6-0.5c-0.1-1.8-0.2-3.6-0.4-5.3l-0.3-4.9
	c-0.1-0.4,0.1-0.5,0.4-0.5l2.9-0.2c0.5,0,0.6,0.1,0.6,0.6C169,85.4,169.1,87.4,169,89.3z M61.3,113.3c1.1,1.4,1.4,2.9,0.9,4.4
	c-0.4,1.6-1.2,2.9-2.4,4c-1.9,1.9-3.9,3.5-6.3,4.6c-4,2.1-8.2,3.6-12.6,4.3c-3.2,0.6-6.3,1.1-9.5,1.3c-1,0.1-2,0.1-3,0.1h-2.1
	c-0.6,0-0.7-0.1-0.8-0.7l-0.5-6.8l-1.4-13.4l-1.5-12.8l-0.9-6.8l-0.9-6.5c-0.5-3.6-1.1-7.2-1.8-10.8c-0.5-2.9-1-5.8-1.6-8.7
	c-0.1-0.4,0-0.6,0.4-0.7l9.8-4c0.6-0.3,1.2-0.5,1.9-0.6c0.4-0.1,0.6,0.1,0.6,0.5c0,1.1,0,2.3-0.1,3.5l-0.1,0.9
	c-0.1,4-0.1,8.2,0,12.3c0.1,3.6,0.3,7.3,0.5,10.9c0.4,5.6,0.9,11.3,1.5,16.9c0,0.6,0.1,0.6,0.7,0.5c1.2-0.2,2.4-0.3,3.6-0.3
	c3.8,0,7.5,0.4,11.1,1.4c3.2,0.8,6.2,1.9,9.3,3.2c1.5,0.7,2.9,1.6,4,2.6C60.6,112.6,60.9,112.9,61.3,113.3z M140.7,112.7
	c1.5,1.2,2,2.9,1.6,4.7c-0.4,1.6-1.1,2.9-2.1,4c-1.7,1.9-3.7,3.4-5.8,4.5c-4.2,2.4-8.8,3.9-13.5,4.8c-2.6,0.5-5.2,0.9-7.8,1.1
	c-1.5,0.1-3.1,0.2-4.7,0.1h-1.9c-0.4,0.1-0.6-0.1-0.6-0.6c-0.1-2-0.3-3.9-0.5-5.9l-1.1-12l-1.2-10.5l-1.5-11.8
	c-0.2-2.1-0.5-4.1-0.9-6.2L99.5,77c-0.6-3.8-1.3-7.5-2.1-11.3l-0.1-0.5c-0.1-0.4,0-0.6,0.4-0.7c3.5-1.4,6.8-3,10.3-4.3
	c0.9-0.4,2.1-0.8,2,0.1c-0.3,2.6-0.2,5.2-0.3,7.8c-0.1,2.1-0.1,4.2,0.1,6.3V76c0,2.6,0.1,5,0.3,7.5c0.1,3.4,0.4,6.7,0.6,10l0.6,7.1
	c0.1,1.4,0.2,2.6,0.4,3.9c0,0.8,0.1,0.7,0.8,0.6c1.3-0.2,2.6-0.3,3.9-0.3c4.4,0.1,8.8,0.8,12.9,2c2.9,0.8,5.6,1.9,8.3,3.3
	C138.7,111,139.7,111.8,140.7,112.7z M38.8,125.1c1.1-0.6,2.9-1.9,5.4-3.9c2.6-2.1,4-3.4,4.7-4c-3.9-1.7-7.8-3.2-11.8-4.5
	L38.8,125.1z M128.8,117.5c0.2-0.2,0.1-0.4-0.1-0.5l-1.7-0.7c-3-1.3-5.9-2.4-9-3.4l-0.4-0.1c-0.1-0.1-0.3,0-0.5,0.1l1.7,12.2
	c0.2,0,0.4-0.1,0.4-0.1c2.8-2,5.5-4,8.3-6.2L128.8,117.5z"
        fill="#000000"/>
</svg>
