<svg width="192" height="192" viewBox="0 0 192 192" xmlns="http://www.w3.org/2000/svg">
    <path d="M148.9,130.6c-10.6,14.6-26.8,24.3-44.8,26.9v-29h14.2c8.8-1.9,15.2-9.4,15.6-18.4V79
	c-1.6-9.3-9.6-16.2-19.2-16.3h-10.6v-29c12.5,1.6,24.2,7,33.4,15.6c10.5,9,17.7,21.2,20.6,34.6C160.9,100.1,157.6,116.7,148.9,130.6
	z M78,111.5c0,0-2.8,0.7-3.6-2.8V82.5c0,0,0-2.8,2.1-2.8h36.9c0,0,2.8-0.7,3.6,2.8v25.4c0,0,0.7,4.2-2.1,3.6H78z M87.2,157.5
	c-19.1-2-36-13.1-45.5-29.7c-8.6-13.2-11.4-29.3-7.8-44.5c2.6-14.5,10.4-27.6,22-36.8c9.1-7.3,20.3-11.8,32-12.7v29.7H75.1
	C64.8,64.2,56.9,73,57.3,83.3V110c0.4,9.7,8,17.6,17.8,18.4h12.1V157.5z M175.9,92.4c-0.7-17.4-7.2-34.1-18.5-47.4
	C142,26.4,119,15.8,95,16c-23.1-0.6-45.2,9.6-59.7,27.6c-9,10.3-15.1,22.7-17.8,36.1c-3.5,18.3-0.8,37.2,7.8,53.8
	c8.7,16.7,23,29.7,40.5,36.8c41.2,16.4,87.9-3.5,104.4-44.5C174.5,115.1,176.4,103.8,175.9,92.4z"
        fill="#000000"/>
</svg>
