<svg width="192" height="192" viewBox="0 0 192 192" xmlns="http://www.w3.org/2000/svg">
    <path d="M77.1,57.8h-8.4v50.8h8.4V57.8z M60.8,57.8h-8.4v50.8h8.4V57.8z M44.5,57.8h-8.4v50.8h8.4V57.8z M27.9,57.5L17,107.3
	l8.2,1.6l10.9-49.8L27.9,57.5z M142.4,57.8H134v50.8h8.4V57.8z M126.1,57.8h-8.4v50.8h8.4V57.8z M175,57.8h-8.4v50.8h8.4V57.8z
	 M158.7,57.8h-8.4v50.8h8.4V57.8z M109.7,57.8h-8.4v50.8h8.4V57.8z M93.4,57.8H85v50.8h8.4V57.8z M86.7,134.3l-1.9-1.2l-4.3-2.7
	l-4.3,2.7l-1.9,1.2l0.7-1.9l1.7-4.4l-4.2-2.7l-1.9-1.2h7.6l1.7-4.4l0.7-1.9l0.7,1.9l1.7,4.4h7.5l-1.9,1.2l-4.2,2.7l1.7,4.4
	L86.7,134.3z M77.5,127.7l-1.8,4.9l4.8-3l4.8,3l-1.8-4.9l4.7-3h-5.8l-1.8-4.9l-1.8,4.9h-5.8L77.5,127.7z M42.7,130.7
	c0,1.1-0.4,1.9-1.3,2.7c-0.9,0.8-1.9,1.1-3.1,1.1h-0.8c-1.3,0-2.2-0.4-3.1-1.1c-0.9-0.8-1.3-1.6-1.3-2.7v-9.4c0-1.1,0.4-1.9,1.3-2.7
	c0.9-0.8,1.9-1.1,3.1-1.1h0.8c1.2,0,2.2,0.4,3.1,1.1c0.9,0.8,1.3,1.6,1.3,2.7V130.7z M39.8,130.1v-8.2c0-0.7-0.1-1.2-0.2-1.4
	c-0.2-0.5-0.7-0.7-1.4-0.7c-1.4,0-2.1,0.7-2.1,2.1v8.1c0,1.4,0.6,2.1,1.9,2.1C39.2,132.2,39.8,131.5,39.8,130.1z M55.9,130.7
	c0,1.1-0.4,1.9-1.3,2.7c-0.9,0.8-1.9,1.1-3.1,1.1h-0.8c-1.3,0-2.2-0.4-3.1-1.1c-0.9-0.8-1.3-1.6-1.3-2.7v-9.4c0-1.1,0.4-1.9,1.3-2.7
	c0.9-0.8,1.9-1.1,3.1-1.1h0.8c1.2,0,2.2,0.4,3.1,1.1c0.9,0.8,1.3,1.6,1.3,2.7V130.7z M53,130.1v-8.2c0-0.7-0.1-1.2-0.2-1.4
	c-0.2-0.5-0.7-0.7-1.4-0.7c-1.4,0-2.1,0.7-2.1,2.1v8.1c0,1.4,0.6,2.1,1.9,2.1C52.4,132.2,53,131.5,53,130.1z M69.5,134.3h-3.3
	l-3.7-4.8v4.8h-3.1v-16.6h3.1v4.8l3.7-4.8h3.3l-6.6,8.2L69.5,134.3z M109.8,117.7l-3.3,16.6l-3.2,0l-1.8-9.1l-1.8,9.1l-3.2,0
	l-3.2-16.6h3.1l1.8,11.2l1.8-11.2h3.1l1.8,11.2l1.8-11.2H109.8z M121.4,134.3h-3.1l-0.6-3.3h-2.4l-0.6,3.3h-3l3.3-16.6l3.2,0
	L121.4,134.3z M117.4,128.4l-0.7-4.5l-0.7,4.5H117.4z M134.2,131.9v2.4h-8.8v-16.5h3.1v14.2H134.2z M147.4,134.3h-3.3l-3.7-4.8v4.8
	h-3.1v-16.6h3.1v4.8l3.7-4.8h3.3l-6.6,8.2L147.4,134.3z M159.3,131.9v2.4h-8.8v-16.5l8.8,0v2.4h-5.8v4.5h3.4v2.4h-3.4v5L159.3,131.9
	L159.3,131.9z M26.6,122.4v-0.3c0-0.9-0.1-1.4-0.3-1.7c-0.3-0.3-1-0.5-1.9-0.5h-2.1v4.6c1,0,2.2,0,2.2,0c0.9,0,1.5-0.2,1.8-0.5
	C26.5,123.8,26.6,123.2,26.6,122.4z M26.6,130.6v-2c0-1.3-0.3-1.9-1-1.9h-3.4v5.5l2.7,0c0.7,0,1.3-0.2,1.5-0.6
	C26.5,131.2,26.6,131.3,26.6,130.6z M28,125.8c0.4,0.2,0.8,0.5,1.2,1c0.3,0.5,0.5,1,0.5,1.4v2.6h0c0,1.1-0.3,1.9-1,2.6
	c-0.7,0.7-1.6,1-2.8,1h-6.5v-14.5H17v-2.1h6.1v0l2.1,0c1.2,0,2.2,0.4,3.1,1.2c0.9,0.8,1.3,1.6,1.3,2.7v1.6c0,0.5-0.1,1-0.5,1.5
	C28.8,125.2,28.4,125.6,28,125.8z M175,123.1v-1.8c0-1.1-0.4-2-1.3-2.7c-0.9-0.7-1.9-1.1-3.1-1.1l-5.8,0h-3v2.1h3v14.7h3.1v-7.7h1.2
	l2.5,7.7h2.8l-2.6-7.7c0.9-0.1,1.7-0.4,2.3-0.9C174.7,125.1,175,124.2,175,123.1z M172.1,122.5c0,0.7-0.1,1.2-0.3,1.5
	c-0.2,0.4-0.8,0.6-1.5,0.6l-2.4,0v-4.8h1.9c1,0,1.6,0.2,1.9,0.5c0.2,0.3,0.3,0.8,0.3,1.7V122.5z"
        fill="#000000"/>
</svg>
