<svg width="192" height="192" viewBox="0 0 192 192" xmlns="http://www.w3.org/2000/svg"><path d="M77.1 57.8h-8.4v50.8h8.4V57.8zm-16.3 0h-8.4v50.8h8.4V57.8zm-16.3 0h-8.4v50.8h8.4V57.8zm-16.6-.3L17 107.3l8.2 1.6 10.9-49.8-8.2-1.6zm114.5.3H134v50.8h8.4V57.8zm-16.3 0h-8.4v50.8h8.4V57.8zm48.9 0h-8.4v50.8h8.4V57.8zm-16.3 0h-8.4v50.8h8.4V57.8zm-49 0h-8.4v50.8h8.4V57.8zm-16.3 0H85v50.8h8.4V57.8zm-6.7 76.5-1.9-1.2-4.3-2.7-4.3 2.7-1.9 1.2.7-1.9 1.7-4.4-4.2-2.7-1.9-1.2h7.6l1.7-4.4.7-1.9.7 1.9 1.7 4.4h7.5l-1.9 1.2-4.2 2.7 1.7 4.4.6 1.9zm-9.2-6.6-1.8 4.9 4.8-3 4.8 3-1.8-4.9 4.7-3h-5.8l-1.8-4.9-1.8 4.9H73l4.5 3zm-34.8 3c0 1.1-.4 1.9-1.3 2.7-.9.8-1.9 1.1-3.1 1.1h-.8c-1.3 0-2.2-.4-3.1-1.1-.9-.8-1.3-1.6-1.3-2.7v-9.4c0-1.1.4-1.9 1.3-2.7.9-.8 1.9-1.1 3.1-1.1h.8c1.2 0 2.2.4 3.1 1.1.9.8 1.3 1.6 1.3 2.7v9.4zm-2.9-.6v-8.2c0-.7-.1-1.2-.2-1.4-.2-.5-.7-.7-1.4-.7-1.4 0-2.1.7-2.1 2.1v8.1c0 1.4.6 2.1 1.9 2.1 1.2.1 1.8-.6 1.8-2zm16.1.6c0 1.1-.4 1.9-1.3 2.7-.9.8-1.9 1.1-3.1 1.1h-.8c-1.3 0-2.2-.4-3.1-1.1-.9-.8-1.3-1.6-1.3-2.7v-9.4c0-1.1.4-1.9 1.3-2.7.9-.8 1.9-1.1 3.1-1.1h.8c1.2 0 2.2.4 3.1 1.1.9.8 1.3 1.6 1.3 2.7v9.4zm-2.9-.6v-8.2c0-.7-.1-1.2-.2-1.4-.2-.5-.7-.7-1.4-.7-1.4 0-2.1.7-2.1 2.1v8.1c0 1.4.6 2.1 1.9 2.1 1.2.1 1.8-.6 1.8-2zm16.5 4.2h-3.3l-3.7-4.8v4.8h-3.1v-16.6h3.1v4.8l3.7-4.8h3.3l-6.6 8.2 6.6 8.4zm40.3-16.6-3.3 16.6h-3.2l-1.8-9.1-1.8 9.1h-3.2l-3.2-16.6h3.1l1.8 11.2 1.8-11.2h3.1l1.8 11.2 1.8-11.2h3.1zm11.6 16.6h-3.1l-.6-3.3h-2.4l-.6 3.3h-3l3.3-16.6h3.2l3.2 16.6zm-4-5.9-.7-4.5-.7 4.5h1.4zm16.8 3.5v2.4h-8.8v-16.5h3.1V132h5.7zm13.2 2.4h-3.3l-3.7-4.8v4.8h-3.1v-16.6h3.1v4.8l3.7-4.8h3.3l-6.6 8.2 6.6 8.4zm11.9-2.4v2.4h-8.8v-16.5h8.8v2.4h-5.8v4.5h3.4v2.4h-3.4v5l5.8-.2zm-132.7-9.5v-.3c0-.9-.1-1.4-.3-1.7-.3-.3-1-.5-1.9-.5h-2.1v4.6h2.2c.9 0 1.5-.2 1.8-.5.2-.2.3-.8.3-1.6zm0 8.2v-2c0-1.3-.3-1.9-1-1.9h-3.4v5.5h2.7c.7 0 1.3-.2 1.5-.6.1-.4.2-.3.2-1zm1.4-4.8c.4.2.8.5 1.2 1 .3.5.5 1 .5 1.4v2.6c0 1.1-.3 1.9-1 2.6-.7.7-1.6 1-2.8 1h-6.5v-14.5H17v-2.1h8.2c1.2 0 2.2.4 3.1 1.2.9.8 1.3 1.6 1.3 2.7v1.6c0 .5-.1 1-.5 1.5-.3.4-.7.8-1.1 1zm147-2.7v-1.8c0-1.1-.4-2-1.3-2.7-.9-.7-1.9-1.1-3.1-1.1h-8.8v2.1h3v14.7h3.1v-7.7h1.2l2.5 7.7h2.8l-2.6-7.7c.9-.1 1.7-.4 2.3-.9.6-.6.9-1.5.9-2.6zm-2.9-.6c0 .7-.1 1.2-.3 1.5-.2.4-.8.6-1.5.6h-2.4v-4.8h1.9c1 0 1.6.2 1.9.5.2.3.3.8.3 1.7v.5z"/></svg>