<svg width="192" height="192" viewBox="0 0 192 192" xmlns="http://www.w3.org/2000/svg">
    <path d="M170.6,114c-14-17.8-34.9-36.2-40.7-40.6c-4.1-3.2-8.1-4.8-12-4.8c-4.2,0.1-8.1,1.7-11.2,4.5c-0.6,0.6-1.7,1.4-2.8,2.4
	C95.7,82.2,70,105,69.3,105.6c-2,1.8-4.5,2.8-7.3,2.9c-3-0.3-5.8-1.5-7.9-3.7c-7.4-6-14.4-12.5-20.9-19.4
	C27,78.5,21.7,72.5,21.7,72.5s-1.1,2.2-1.8,4c-0.2,0.4-0.2,0.9-0.2,1.3c0,0.5,0.2,0.9,0.4,1.2c3.4,4.8,19.1,22.8,40.5,40.8
	c3.3,3,7.6,4.7,12,4.8c4.2-0.1,8.1-1.7,11.2-4.5c0.6-0.6,1.7-1.4,2.8-2.4c8.2-6.7,23.9-20.6,31.1-27.1c1.7-1.4,2.8-2.4,3.3-2.9
	c2-1.8,4.5-2.8,7.3-2.9c3,0.3,5.7,1.6,7.9,3.7c4.6,3.8,12,10.5,20.9,19.4c6.4,6.7,11.5,12.7,11.5,12.9c0,0,1.1-2.4,1.8-4
	c0.3-0.4,0.5-0.9,0.5-1.4C170.9,115,170.8,114.5,170.6,114z M88.3,47.4c-7.2,5.1-36.8,31.9-42.6,38.4c3.2,3.4,6.7,6.6,10.4,9.5
	c0.5,0.4,1.1,0.7,1.8,0.8c0.6,0.1,1.3,0,1.9-0.2c0.6-0.3,1.1-0.7,1.5-1.2C72.6,83.4,96,63.3,99.1,60.9c8.7-7.2,19.1-7.9,28.2-1.1
	c22.7,16.7,42.9,42.9,46.3,47.7c0,0,0.5-2.4,0.8-4.5c0.3-1.3,0-2.6-0.6-3.7c-21.3-30.1-44-48.6-52.7-53.3
	C111.3,41,99.8,39.2,88.3,47.4z M64.3,31.8C49.7,43.4,30.8,60.4,26,65.5c2.9,3.4,6,6.6,9.2,9.6c0.3,0.3,0.6,0.5,1.1,0.5
	c0.4,0.1,0.8,0,1.2-0.1c0.4-0.2,0.7-0.4,0.9-0.8c14.4-13.6,30.1-27.6,39.2-34.5c15.3-11.6,33.3-12.7,50.9,1
	c7.4,5.7,14.3,12,20.9,18.6c9.3,10.1,17.8,20.7,25.6,32c-0.1-2.3-0.3-4.5-0.8-6.7c-0.2-0.9-0.5-1.8-1-2.6
	c-5.1-9.2-11.3-17.9-18.2-25.9c-19.7-22.5-32-29.3-40.1-33.4C104.2,18,83.7,16.4,64.3,31.8z M103.7,144.6c7.2-5.1,36.8-32,42.6-38.4
	c-3.3-3.4-6.7-6.7-10.4-9.6c-0.5-0.4-1.1-0.7-1.8-0.8c-0.6-0.1-1.3,0-1.9,0.2c-0.6,0.3-1.1,0.7-1.5,1.2
	c-11.3,11.2-34.7,31.3-37.8,33.7c-8.7,7.2-19.1,7.9-28.4,1.1c-22.7-16.7-42.7-42.9-46.2-47.9c0,0-0.5,2.4-0.8,4.5
	c-0.3,1.3,0,2.6,0.6,3.7c21.4,30.1,44,48.7,52.7,53.3C80.7,151,92.2,152.8,103.7,144.6z M127.7,160.2c14.6-11.6,33.5-28.6,38.3-33.7
	c-2.9-3.4-6-6.6-9.2-9.6c-0.3-0.3-0.6-0.5-1.1-0.5c-0.4-0.1-0.8,0-1.2,0.1c-0.4,0.2-0.7,0.4-0.9,0.8c-14.4,13.6-30.1,27.6-39.2,34.5
	c-15.3,11.6-33.3,12.7-50.9-1c-7.4-5.7-14.3-12-20.9-18.6C33.3,122,24.8,111.3,17,100c0.1,2.3,0.3,4.5,0.8,6.7
	c0.2,0.9,0.5,1.8,1,2.6c5.1,9.2,11.3,17.9,18.2,25.9c19.7,22.5,32,29.2,40.1,33.4C87.8,174,108.3,175.6,127.7,160.2z"
        fill="#000000"/>
</svg>
