<svg width="192" height="192" viewBox="0 0 192 192" xmlns="http://www.w3.org/2000/svg"><path d="M170.6 114c-14-17.8-34.9-36.2-40.7-40.6-4.1-3.2-8.1-4.8-12-4.8-4.2.1-8.1 1.7-11.2 4.5-.6.6-1.7 1.4-2.8 2.4-8.2 6.7-33.9 29.5-34.6 30.1-2 1.8-4.5 2.8-7.3 2.9-3-.3-5.8-1.5-7.9-3.7-7.4-6-14.4-12.5-20.9-19.4-6.2-6.9-11.5-12.9-11.5-12.9s-1.1 2.2-1.8 4c-.2.4-.2.9-.2 1.3 0 .5.2.9.4 1.2 3.4 4.8 19.1 22.8 40.5 40.8 3.3 3 7.6 4.7 12 4.8 4.2-.1 8.1-1.7 11.2-4.5.6-.6 1.7-1.4 2.8-2.4 8.2-6.7 23.9-20.6 31.1-27.1 1.7-1.4 2.8-2.4 3.3-2.9 2-1.8 4.5-2.8 7.3-2.9 3 .3 5.7 1.6 7.9 3.7 4.6 3.8 12 10.5 20.9 19.4 6.4 6.7 11.5 12.7 11.5 12.9 0 0 1.1-2.4 1.8-4 .3-.4.5-.9.5-1.4 0-.4-.1-.9-.3-1.4zM88.3 47.4c-7.2 5.1-36.8 31.9-42.6 38.4 3.2 3.4 6.7 6.6 10.4 9.5.5.4 1.1.7 1.8.8.6.1 1.3 0 1.9-.2.6-.3 1.1-.7 1.5-1.2C72.6 83.4 96 63.3 99.1 60.9c8.7-7.2 19.1-7.9 28.2-1.1 22.7 16.7 42.9 42.9 46.3 47.7 0 0 .5-2.4.8-4.5.3-1.3 0-2.6-.6-3.7-21.3-30.1-44-48.6-52.7-53.3-9.8-5-21.3-6.8-32.8 1.4zm-24-15.6C49.7 43.4 30.8 60.4 26 65.5c2.9 3.4 6 6.6 9.2 9.6.3.3.6.5 1.1.5.4.1.8 0 1.2-.1.4-.2.7-.4.9-.8 14.4-13.6 30.1-27.6 39.2-34.5 15.3-11.6 33.3-12.7 50.9 1 7.4 5.7 14.3 12 20.9 18.6 9.3 10.1 17.8 20.7 25.6 32-.1-2.3-.3-4.5-.8-6.7-.2-.9-.5-1.8-1-2.6-5.1-9.2-11.3-17.9-18.2-25.9-19.7-22.5-32-29.3-40.1-33.4-10.7-5.2-31.2-6.8-50.6 8.6zm39.4 112.8c7.2-5.1 36.8-32 42.6-38.4-3.3-3.4-6.7-6.7-10.4-9.6-.5-.4-1.1-.7-1.8-.8-.6-.1-1.3 0-1.9.2-.6.3-1.1.7-1.5 1.2-11.3 11.2-34.7 31.3-37.8 33.7-8.7 7.2-19.1 7.9-28.4 1.1-22.7-16.7-42.7-42.9-46.2-47.9 0 0-.5 2.4-.8 4.5-.3 1.3 0 2.6.6 3.7 21.4 30.1 44 48.7 52.7 53.3 9.9 5.4 21.4 7.2 32.9-1zm24 15.6c14.6-11.6 33.5-28.6 38.3-33.7-2.9-3.4-6-6.6-9.2-9.6-.3-.3-.6-.5-1.1-.5-.4-.1-.8 0-1.2.1-.4.2-.7.4-.9.8-14.4 13.6-30.1 27.6-39.2 34.5-15.3 11.6-33.3 12.7-50.9-1-7.4-5.7-14.3-12-20.9-18.6C33.3 122 24.8 111.3 17 100c.1 2.3.3 4.5.8 6.7.2.9.5 1.8 1 2.6 5.1 9.2 11.3 17.9 18.2 25.9 19.7 22.5 32 29.2 40.1 33.4 10.7 5.4 31.2 7 50.6-8.4z"/></svg>