<svg width="192" height="192" viewBox="0 0 192 192" xmlns="http://www.w3.org/2000/svg">
    <path d="M34.2,61.3c16.7-11.9,40.3-9.1,56.5,2.4c6.5,4.9,13.2,9.8,19.2,15.2c-3.9,3.3-8.4,5.8-12.6,8.7
	c-7.9-6-15.2-13.3-24.8-16.6c-8.8-3-19.2-3.5-27.5,1.2c-8.5,4.6-14.4,13.9-14.4,23.6c-0.3,9.8,5.5,19.4,14.1,24.2
	c8.3,4.8,18.7,4.6,27.4,1.2c10.5-4.1,18.3-12.7,24.8-21.6c10-13.7,17.6-29,26.8-43.2c2.7-4.2,9.7-3.8,11.9,0.7
	c13,23.2,26,46.4,39,69.5c1.6,2.5,1.8,5.9,0.3,8.6c-2.1,3.9-8,4.2-11.2,1.5c-15.8-11.8-31.7-23.3-47.5-35.1c4-3.3,8.5-5.9,12.7-8.9
	c5.6,4.1,11,8.3,16.7,12.2c-5.4-9.8-11-19.5-16.4-29.4c-11.6,18-21.1,38.2-38.2,51.8c-11.9,9.6-28.2,13.7-43.1,10.1
	c-13-3.2-24.1-13-29-25.4C11.6,94.1,18.2,72,34.2,61.3z"
        fill="#000000"/>
</svg>
