<svg width="192" height="192" viewBox="0 0 192 192" xmlns="http://www.w3.org/2000/svg">
    <path d="M45.5,31.7c11.9,0,21.5,9.6,21.5,21.5s-9.6,21.5-21.5,21.5S24,65.1,24,53.2S33.6,31.7,45.5,31.7z M96.4,168.3
	c-30.1,0-61.8-26.1-67.6-55.9c-2-9.5,3.1-17.8,12.2-20c8.4-2,16.7,2.9,19,12.2c2.2,8.5,5.3,16.6,10.7,23.5
	c12.2,15.4,28.3,21,47.1,17.2s29.8-16.6,35.8-34.3c0.3-0.9,0.5-1.8,0.6-2.7c0.6-4.1,2.1-7.8,6.9-7c5.6,1,5.1,5.8,4.1,9.7
	c-4.6,17.6-13.2,32.8-27.9,44C125.2,164.3,111.4,168.4,96.4,168.3L96.4,168.3z M151.1,63.9V39.7c0.5-4.2,4.2-7.5,8.4-7.5
	c4.3,0,7.9,3.2,8.4,7.5v24.2c-0.5,4.2-4.2,7.5-8.4,7.5C155.2,71.4,151.6,68.1,151.1,63.9"
        fill="#000000"/>
</svg>
