<svg width="192" height="192" viewBox="0 0 192 192" xmlns="http://www.w3.org/2000/svg">
    <path d="M68,38.7c8.4-4.1,18-6.5,28-6.5c10.1,0,19.6,2.3,28,6.5h0L96,75.3L68,38.7z M86.5,112H46.1v15h40.5
	v32c-29.8-4.4-52.9-29.5-54.2-60.2h54.2V112z M53.9,48l27.3,35.8H33.4C36.1,69.7,43.5,57.2,53.9,48z M158.6,83.8h-47.8l27.3-35.7v0
	C148.4,57.2,155.9,69.7,158.6,83.8z M157.7,112c-6.4,24.5-26.8,43.3-52.3,47v-32h40.5v-15h-40.5V98.9h70.5c0-1,0.1-1.9,0.1-2.9
	c0-44.2-35.8-80-80-80S16,51.8,16,96s35.8,80,80,80c38.7,0,71-27.5,78.4-64H157.7z"
        fill="#000000"/>
</svg>
