<svg width="192" height="192" viewBox="0 0 192 192" xmlns="http://www.w3.org/2000/svg"><path d="M153.6 126 126 153.6H38.4V38.4h115.2V126zM38.4 24C30.5 24 24 30.5 24 38.4v115.2c0 7.9 6.5 14.4 14.4 14.4H132l36-36V38.4c0-7.9-6.5-14.4-14.4-14.4H38.4zm57.3 96c-2.6 0-5.2-.5-7.8-1.5-2.6-1-4.8-2.6-6.8-4.7-1.9-2.1-3.3-4.8-4.1-8l9.1-3.5c.6 2.5 1.7 4.6 3.3 6.1 1.6 1.5 3.7 2.3 6.2 2.3 2.4 0 4.4-.8 6.1-2.5 1.7-1.6 2.5-3.7 2.5-6.2s-.8-4.5-2.4-6.1c-1.6-1.7-3.7-2.5-6.2-2.5-1.6 0-3 .3-4.2 1-1.2.7-2.3 1.5-3.1 2.5l-9.8-4.4 3-26.3h29.6V75H89.9L88 87.3l.6.2c1-.9 2.3-1.6 3.8-2.2 1.5-.6 3.3-.9 5.4-.9 2.9 0 5.6.7 8.1 2.2 2.5 1.5 4.5 3.6 6.1 6.2 1.6 2.6 2.4 5.7 2.4 9.2 0 3.5-.8 6.6-2.4 9.3-1.6 2.7-3.8 4.8-6.6 6.4-2.9 1.6-6.1 2.3-9.7 2.3z"/></svg>