<svg width="192" height="192" viewBox="0 0 192 192" xmlns="http://www.w3.org/2000/svg">
    <path d="M153.6,126L126,153.6H38.4V38.4h115.2V126z M38.4,24C30.5,24,24,30.5,24,38.4v115.2c0,7.9,6.5,14.4,14.4,14.4H132l36-36
	V38.4c0-7.9-6.5-14.4-14.4-14.4H38.4z M95.7,120c-2.6,0-5.2-0.5-7.8-1.5c-2.6-1-4.8-2.6-6.8-4.7c-1.9-2.1-3.3-4.8-4.1-8l9.1-3.5
	c0.6,2.5,1.7,4.6,3.3,6.1c1.6,1.5,3.7,2.3,6.2,2.3c2.4,0,4.4-0.8,6.1-2.5c1.7-1.6,2.5-3.7,2.5-6.2c0-2.5-0.8-4.5-2.4-6.1
	c-1.6-1.7-3.7-2.5-6.2-2.5c-1.6,0-3,0.3-4.2,1c-1.2,0.7-2.3,1.5-3.1,2.5l-9.8-4.4l3-26.3h29.6v8.8H89.9l-1.9,12.3l0.6,0.2
	c1-0.9,2.3-1.6,3.8-2.2c1.5-0.6,3.3-0.9,5.4-0.9c2.9,0,5.6,0.7,8.1,2.2c2.5,1.5,4.5,3.6,6.1,6.2c1.6,2.6,2.4,5.7,2.4,9.2
	c0,3.5-0.8,6.6-2.4,9.3c-1.6,2.7-3.8,4.8-6.6,6.4C102.5,119.3,99.3,120,95.7,120z"
        fill="#000000"/>
</svg>
