<svg width="192" height="192" viewBox="0 0 192 192" xmlns="http://www.w3.org/2000/svg"><path d="M153.6 126 126 153.6H38.4V38.4h115.2V126zM38.4 24C30.5 24 24 30.5 24 38.4v115.2c0 7.9 6.5 14.4 14.4 14.4H132l36-36V38.4c0-7.9-6.5-14.4-14.4-14.4H38.4zm40.3 94.8v-9.1l1.6-1.6 4.1-4.1c1.7-1.6 3.4-3.4 5.2-5.1 1.8-1.8 3.4-3.5 4.9-5 1.5-1.5 2.6-2.7 3.3-3.5 1.8-1.9 3-3.6 3.8-4.9.7-1.3 1.1-2.9 1.1-4.6 0-1.7-.6-3.2-1.9-4.5-1.3-1.3-3.1-1.9-5.4-1.9-2.3 0-4.1.7-5.4 2-1.3 1.3-2.2 2.8-2.7 4.5l-9.1-3.8c.6-1.9 1.6-3.8 3-5.6 1.5-1.8 3.4-3.4 5.8-4.6 2.4-1.3 5.2-1.9 8.5-1.9 3.6 0 6.7.7 9.2 2.1 2.6 1.4 4.6 3.2 6 5.5 1.4 2.3 2.2 4.9 2.2 7.8 0 3.3-.8 6.3-2.4 9.1-1.6 2.8-3.6 5.3-5.9 7.6-.8.7-1.3 1.3-1.7 1.6-.3.3-.6.6-1 .9l-1.5 1.5-2.9 2.9c-1.3 1.3-3.1 3.2-5.5 5.5l.2.5h21.3v8.8H78.7z"/></svg>