<svg width="192" height="192" viewBox="0 0 192 192" xmlns="http://www.w3.org/2000/svg">
    <path d="M153.6,126L126,153.6H38.4V38.4h115.2V126z M38.4,24C30.5,24,24,30.5,24,38.4v115.2c0,7.9,6.5,14.4,14.4,14.4H132l36-36
	V38.4c0-7.9-6.5-14.4-14.4-14.4H38.4z M96.2,120c-2.9,0-5.6-0.5-8-1.5c-2.4-1.1-4.4-2.5-6-4.2c-3.3-3.4-4.9-7.6-4.9-12.6
	c0-3.5,0.7-6.8,2.1-9.7c1.4-2.9,3.2-5.9,5.4-9.1c2.1-3,4.2-6,6.3-9.1c2.2-3.1,4.3-6.1,6.4-9.1l7.8,5.4c-1.8,2.5-3.6,5-5.5,7.6
	c-1.8,2.5-3.6,5-5.4,7.6l0.5,0.5c1.2-0.5,2.5-0.8,4-0.8c2.7,0,5.2,0.7,7.6,2.2c2.4,1.4,4.4,3.4,5.9,6c1.5,2.6,2.3,5.5,2.3,8.9
	c0,3.5-0.9,6.6-2.6,9.3c-1.7,2.7-4,4.8-6.8,6.4C102.4,119.3,99.4,120,96.2,120z M96,110.8c1.6,0,3-0.4,4.4-1.1
	c1.3-0.8,2.4-1.8,3.2-3.1c0.9-1.3,1.3-2.8,1.3-4.5c0-1.7-0.4-3.3-1.3-4.5c-0.8-1.3-1.9-2.4-3.3-3.1c-1.3-0.8-2.8-1.2-4.3-1.2
	c-1.5,0-2.9,0.4-4.3,1.2c-1.3,0.7-2.4,1.7-3.3,3.1c-0.8,1.3-1.2,2.8-1.2,4.5c0,1.7,0.4,3.2,1.2,4.5c0.9,1.3,2,2.3,3.3,3.1
	C93,110.5,94.4,110.8,96,110.8z"
        fill="#000000"/>
</svg>
