<svg width="192" height="192" viewBox="0 0 192 192" xmlns="http://www.w3.org/2000/svg">
    <path d="M153.6,126L126,153.6H38.4V38.4h115.2V126z M38.4,24C30.5,24,24,30.5,24,38.4v115.2c0,7.9,6.5,14.4,14.4,14.4H132l36-36
	V38.4c0-7.9-6.5-14.4-14.4-14.4H38.4z M78.7,118.8v-9.1c0,0,0.5-0.5,1.6-1.6c1.1-1.1,2.4-2.4,4.1-4.1c1.7-1.6,3.4-3.4,5.2-5.1
	c1.8-1.8,3.4-3.5,4.9-5c1.5-1.5,2.6-2.7,3.3-3.5c1.8-1.9,3-3.6,3.8-4.9c0.7-1.3,1.1-2.9,1.1-4.6c0-1.7-0.6-3.2-1.9-4.5
	c-1.3-1.3-3.1-1.9-5.4-1.9c-2.3,0-4.1,0.7-5.4,2c-1.3,1.3-2.2,2.8-2.7,4.5l-9.1-3.8c0.6-1.9,1.6-3.8,3-5.6c1.5-1.8,3.4-3.4,5.8-4.6
	c2.4-1.3,5.2-1.9,8.5-1.9c3.6,0,6.7,0.7,9.2,2.1c2.6,1.4,4.6,3.2,6,5.5c1.4,2.3,2.2,4.9,2.2,7.8c0,3.3-0.8,6.3-2.4,9.1
	c-1.6,2.8-3.6,5.3-5.9,7.6c-0.8,0.7-1.3,1.3-1.7,1.6c-0.3,0.3-0.6,0.6-1,0.9c-0.3,0.3-0.8,0.8-1.5,1.5c-0.6,0.6-1.6,1.6-2.9,2.9
	c-1.3,1.3-3.1,3.2-5.5,5.5l0.2,0.5h21.3v8.8H78.7z"
        fill="#000000"/>
</svg>
