<svg width="192" height="192" viewBox="0 0 192 192" xmlns="http://www.w3.org/2000/svg">
    <path d="M153.6,126L126,153.6H38.4V38.4h115.2V126z M38.4,24C30.5,24,24,30.5,24,38.4v115.2c0,7.9,6.5,14.4,14.4,14.4H132l36-36
	V38.4c0-7.9-6.5-14.4-14.4-14.4H38.4z M94.6,120.3l-7.8-5.4c1.8-2.6,3.6-5.1,5.4-7.6c1.8-2.6,3.7-5.1,5.5-7.6l-0.5-0.5
	c-1.2,0.5-2.5,0.8-4,0.8c-2.7,0-5.2-0.7-7.6-2.2c-2.4-1.4-4.4-3.4-5.9-6c-1.5-2.6-2.3-5.6-2.3-8.9c0-3.5,0.9-6.6,2.6-9.3
	c1.7-2.7,4-4.8,6.8-6.4c2.8-1.5,5.8-2.3,9.1-2.3c3,0,5.7,0.6,8.1,1.7c2.5,1.1,4.5,2.5,6.1,4.4c1.5,1.6,2.6,3.5,3.4,5.6
	c0.8,2.1,1.2,4.3,1.2,6.7c0,3.5-0.7,6.8-2.2,9.7c-1.4,2.9-3.1,5.9-5.3,9.1c-2.1,3-4.2,6.1-6.4,9.1C98.8,114.3,96.7,117.3,94.6,120.3
	z M96,91.7c1.5,0,3-0.4,4.3-1.1c1.3-0.8,2.4-1.8,3.2-3.1c0.9-1.3,1.3-2.9,1.3-4.6s-0.4-3.3-1.3-4.5c-0.8-1.3-1.9-2.3-3.2-3
	c-1.3-0.8-2.8-1.2-4.3-1.2c-1.5,0-3,0.4-4.4,1.2c-1.3,0.7-2.4,1.7-3.3,3c-0.8,1.3-1.2,2.8-1.2,4.5s0.4,3.3,1.2,4.6
	c0.9,1.3,2,2.3,3.3,3.1C93,91.3,94.5,91.7,96,91.7z"
        fill="#000000"/>
</svg>
