<svg width="192" height="192" viewBox="0 0 192 192" xmlns="http://www.w3.org/2000/svg"><path d="M153.6 126 126 153.6H38.4V38.4h115.2V126zM38.4 24C30.5 24 24 30.5 24 38.4v115.2c0 7.9 6.5 14.4 14.4 14.4H132l36-36V38.4c0-7.9-6.5-14.4-14.4-14.4H38.4zM96 120c-4.2 0-8.1-1.1-11.6-3.4s-5.9-5.8-7.2-10.4l9.5-3.8c1.3 5.2 4.4 7.8 9.3 7.8 2.2 0 4-.6 5.7-1.9 1.6-1.3 2.5-3 2.5-5.1 0-2.3-.9-4-2.6-5.3-1.7-1.3-4-1.9-6.9-1.9h-4.5v-9.1h4.1c2.1 0 4-.5 5.6-1.6 1.6-1.1 2.5-2.7 2.5-5 0-1.7-.6-3.2-1.9-4.3-1.2-1.1-2.9-1.7-4.9-1.7-2.3 0-4 .6-5.2 1.8-1.2 1.2-2.1 2.6-2.5 4.1l-9.1-3.8c.6-1.7 1.6-3.5 3.1-5.2 1.4-1.7 3.3-3.2 5.6-4.4 2.3-1.2 5.1-1.8 8.3-1.8 3.4 0 6.3.6 8.8 1.8 2.6 1.2 4.6 2.9 6 5.1 1.4 2.1 2.2 4.5 2.2 7.1 0 3-.7 5.5-2.2 7.4-1.4 1.9-2.9 3.3-4.5 4.1v.6c2.4 1 4.4 2.5 6.1 4.7 1.7 2.2 2.5 4.9 2.5 8.1 0 3-.8 5.7-2.3 8.1-1.5 2.4-3.7 4.3-6.5 5.7S99.7 120 96 120z"/></svg>