<svg width="192" height="192" viewBox="0 0 192 192" xmlns="http://www.w3.org/2000/svg">
    <path d="M153.6,126L126,153.6H38.4V38.4h115.2V126z M38.4,24C30.5,24,24,30.5,24,38.4v115.2c0,7.9,6.5,14.4,14.4,14.4H132l36-36
	V38.4c0-7.9-6.5-14.4-14.4-14.4H38.4z M70,118.8V79.4l-7.9,5.8L57,77.4l15.4-11.1H80v52.5H70z M112.7,120c-4.5,0-8.4-1.2-11.8-3.6
	c-3.3-2.4-5.8-5.7-7.6-9.8s-2.7-8.8-2.7-14.1s0.9-9.9,2.7-14.1c1.8-4.1,4.3-7.4,7.6-9.8c3.3-2.4,7.2-3.6,11.8-3.6
	c4.5,0,8.4,1.2,11.7,3.6c3.3,2.4,5.9,5.7,7.7,9.8c1.8,4.1,2.7,8.8,2.7,14.1s-0.9,9.9-2.7,14.1s-4.4,7.4-7.7,9.8
	C121,118.8,117.2,120,112.7,120z M112.7,110.6c2.5,0,4.7-0.8,6.5-2.4c1.8-1.6,3.1-3.7,4.1-6.5c1-2.7,1.5-5.8,1.5-9.2
	c0-3.5-0.5-6.6-1.5-9.3c-0.9-2.7-2.3-4.8-4.1-6.4c-1.8-1.6-3.9-2.4-6.5-2.4c-2.5,0-4.6,0.8-6.4,2.4c-1.8,1.5-3.2,3.7-4.1,6.4
	c-0.9,2.7-1.4,5.8-1.4,9.3c0,3.4,0.5,6.5,1.4,9.2c1,2.7,2.4,4.9,4.1,6.5C108.1,109.8,110.2,110.6,112.7,110.6z"
        fill="#000000"/>
</svg>
