<svg width="192" height="192" viewBox="0 0 192 192" xmlns="http://www.w3.org/2000/svg">
    <path d="M153.6,126L126,153.6H38.4V38.4h115.2V126z M38.4,24C30.5,24,24,30.5,24,38.4v115.2c0,7.9,6.5,14.4,14.4,14.4H132l36-36
	V38.4c0-7.9-6.5-14.4-14.4-14.4H38.4z M96,120c-3.7,0-7-0.7-9.9-2.1c-2.9-1.4-5.1-3.3-6.8-5.7c-1.6-2.4-2.4-5.1-2.4-8.1
	c0-3.1,0.8-5.7,2.5-7.8c1.6-2.2,3.5-3.9,5.5-5v-0.6c-1.6-1.1-3.1-2.6-4.4-4.5c-1.2-1.9-1.8-4-1.8-6.5c0-2.8,0.7-5.3,2.2-7.5
	c1.5-2.3,3.5-4,6.1-5.3c2.6-1.3,5.6-2,8.9-2c3.3,0,6.3,0.7,8.8,2c2.6,1.3,4.7,3,6.1,5.3c1.5,2.2,2.3,4.7,2.3,7.5
	c0,2.4-0.6,4.6-1.9,6.5c-1.2,1.8-2.7,3.3-4.4,4.5v0.6c2.1,1.1,4,2.8,5.6,5c1.6,2.2,2.5,4.8,2.5,7.8c0,3-0.8,5.7-2.5,8.1
	c-1.6,2.4-3.8,4.2-6.7,5.7C103.1,119.3,99.8,120,96,120z M96,87c2.1,0,3.9-0.6,5.3-1.8c1.5-1.2,2.2-2.8,2.2-4.8c0-2-0.7-3.6-2.2-4.7
	C99.9,74.6,98.1,74,96,74c-2.2,0-4,0.6-5.5,1.8c-1.4,1.1-2.2,2.7-2.2,4.7c0,1.9,0.7,3.5,2.2,4.8C92.1,86.4,93.9,87,96,87z M96,110.7
	c2.6,0,4.7-0.7,6.4-2.1c1.7-1.4,2.5-3.2,2.5-5.5c0-2.2-0.8-3.9-2.5-5.3c-1.7-1.4-3.8-2.1-6.4-2.1c-2.6,0-4.7,0.7-6.5,2.1
	c-1.7,1.4-2.5,3.1-2.5,5.3c0,2.3,0.8,4.1,2.5,5.5S93.4,110.7,96,110.7z"
        fill="#000"/>
</svg>
